<svg xmlns="http://www.w3.org/2000/svg" width="572.6926879882812" height="589.7734375" viewBox="-204.5875701904297 -198.54629516601562 572.6926879882812 589.7734375"><title>Neo4j Graph Visualization</title><desc>Created using Neo4j (http://www.neo4j.com/)</desc><g class="layer relationships"><g class="relationship" transform="translate(-68.11103869060429 224.95379864364054) rotate(524.7210479089249)"><path class="outline" fill="#A5ABB6" stroke="none" d="M 25 0.5 L 31.054937156577537 0.5 L 31.054937156577537 -0.5 L 25 -0.5 Z M 73.35962465657754 0.5 L 79.41456181315507 0.5 L 79.41456181315507 3.5 L 86.41456181315507 0 L 79.41456181315507 -3.5 L 79.41456181315507 -0.5 L 73.35962465657754 -0.5 Z"/><text text-anchor="middle" pointer-events="none" font-size="8px" fill="#000000" x="52.20728090657754" y="3" transform="rotate(180 52.20728090657754 0)" font-family="sans-serif">RELATED</text></g><g class="relationship" transform="translate(73.34603263694092 30.88031438757668) rotate(394.7590413921367)"><path class="outline" fill="#A5ABB6" stroke="none" d="M 25 0.5 L 38.86924918124067 0.5 L 38.86924918124067 -0.5 L 25 -0.5 Z M 81.17393668124066 0.5 L 95.04318586248134 0.5 L 95.04318586248134 3.5 L 102.04318586248134 0 L 95.04318586248134 -3.5 L 95.04318586248134 -0.5 L 81.17393668124066 -0.5 Z"/><text text-anchor="middle" pointer-events="none" font-size="8px" fill="#000000" x="60.02159293124067" y="3" font-family="sans-serif">RELATED</text></g><g class="relationship" transform="translate(177.71924887685276 103.31099024957302) rotate(347.6617403908864)"><path class="outline" fill="#A5ABB6" stroke="none" d="M 25 0.5 L 35.682375948653124 0.5 L 35.682375948653124 -0.5 L 25 -0.5 Z M 77.98706344865312 0.5 L 88.66943939730625 0.5 L 88.66943939730625 3.5 L 95.66943939730625 0 L 88.66943939730625 -3.5 L 88.66943939730625 -0.5 L 77.98706344865312 -0.5 Z"/><text text-anchor="middle" pointer-events="none" font-size="8px" fill="#000000" x="56.834719698653124" y="3" font-family="sans-serif">RELATED</text></g><g class="relationship" transform="translate(295.60159881386545 77.52601055619633) rotate(277.63122234025207)"><path class="outline" fill="#A5ABB6" stroke="none" d="M 25 0.5 L 32.14505113396081 0.5 L 32.14505113396081 -0.5 L 25 -0.5 Z M 74.4497386339608 0.5 L 81.59478976792163 0.5 L 81.59478976792163 3.5 L 88.59478976792163 0 L 81.59478976792163 -3.5 L 81.59478976792163 -0.5 L 74.4497386339608 -0.5 Z"/><text text-anchor="middle" pointer-events="none" font-size="8px" fill="#000000" x="53.29739488396081" y="3" font-family="sans-serif">RELATED</text></g><g class="relationship" transform="translate(310.6865911639987 -35.06270676581039) rotate(285.9458541170636)"><path class="outline" fill="#A5ABB6" stroke="none" d="M 25 0.5 L 27.068756429721127 0.5 L 27.068756429721127 -0.5 L 25 -0.5 Z M 69.37344392972113 0.5 L 71.44220035944225 0.5 L 71.44220035944225 3.5 L 78.44220035944225 0 L 71.44220035944225 -3.5 L 71.44220035944225 -0.5 L 69.37344392972113 -0.5 Z"/><text text-anchor="middle" pointer-events="none" font-size="8px" fill="#000000" x="48.22110017972113" y="3" font-family="sans-serif">RELATED</text></g><g class="relationship" transform="translate(310.6865911639987 -35.06270676581039) rotate(228.9027050286728)"><path class="outline" fill="#A5ABB6" stroke="none" d="M 25 0.5 L 35.15167397853585 0.5 L 35.15167397853585 -0.5 L 25 -0.5 Z M 77.45636147853585 0.5 L 87.6080354570717 0.5 L 87.6080354570717 3.5 L 94.6080354570717 0 L 87.6080354570717 -3.5 L 87.6080354570717 -0.5 L 77.45636147853585 -0.5 Z"/><text text-anchor="middle" pointer-events="none" font-size="8px" fill="#000000" x="56.30401772853585" y="3" transform="rotate(180 56.30401772853585 0)" font-family="sans-serif">RELATED</text></g><g class="relationship" transform="translate(339.10514455468837 -134.52463233727474) rotate(535.0206936384715)"><path class="outline" fill="#A5ABB6" stroke="none" d="M 25 0.5 L 29.071232905825667 0.5 L 29.071232905825667 -0.5 L 25 -0.5 Z M 71.37592040582567 0.5 L 75.44715331165133 0.5 L 75.44715331165133 3.5 L 82.44715331165133 0 L 75.44715331165133 -3.5 L 75.44715331165133 -0.5 L 71.37592040582567 -0.5 Z"/><text text-anchor="middle" pointer-events="none" font-size="8px" fill="#000000" x="50.22357665582567" y="3" transform="rotate(180 50.22357665582567 0)" font-family="sans-serif">RELATED</text></g><g class="relationship" transform="translate(232.06348483631194 -125.19865573893311) rotate(201.54636699686773)"><path class="outline" fill="#A5ABB6" stroke="none" d="M 25 0.5 L 35.724988135464244 0.5 L 35.724988135464244 -0.5 L 25 -0.5 Z M 78.02967563546424 0.5 L 88.75466377092849 0.5 L 88.75466377092849 3.5 L 95.75466377092849 0 L 88.75466377092849 -3.5 L 88.75466377092849 -0.5 L 78.02967563546424 -0.5 Z"/><text text-anchor="middle" pointer-events="none" font-size="8px" fill="#000000" x="56.877331885464244" y="3" transform="rotate(180 56.877331885464244 0)" font-family="sans-serif">RELATED</text></g><g class="relationship" transform="translate(119.74707609357414 -169.5462954682833) rotate(535.0253272318675)"><path class="outline" fill="#A5ABB6" stroke="none" d="M 25 0.5 L 34.93593977584947 0.5 L 34.93593977584947 -0.5 L 25 -0.5 Z M 77.24062727584948 0.5 L 87.17656705169894 0.5 L 87.17656705169894 3.5 L 94.17656705169894 0 L 87.17656705169894 -3.5 L 87.17656705169894 -0.5 L 77.24062727584948 -0.5 Z"/><text text-anchor="middle" pointer-events="none" font-size="8px" fill="#000000" x="56.08828352584947" y="3" transform="rotate(180 56.08828352584947 0)" font-family="sans-serif">RELATED</text></g><g class="relationship" transform="translate(1.019431987088638 -159.21185503099727) rotate(460.9351084263041)"><path class="outline" fill="#A5ABB6" stroke="none" d="M 25 0.5 L 31.28535476061724 0.5 L 31.28535476061724 -0.5 L 25 -0.5 Z M 73.59004226061724 0.5 L 79.87539702123448 0.5 L 79.87539702123448 3.5 L 86.87539702123448 0 L 79.87539702123448 -3.5 L 79.87539702123448 -0.5 L 73.59004226061724 -0.5 Z"/><text text-anchor="middle" pointer-events="none" font-size="8px" fill="#000000" x="52.43769851061724" y="3" transform="rotate(180 52.43769851061724 0)" font-family="sans-serif">RELATED</text></g><g class="relationship" transform="translate(-20.203007524712113 -49.3678177789607) rotate(400.62361552758205)"><path class="outline" fill="#A5ABB6" stroke="none" d="M 25 0.5 L 36.97392019522189 0.5 L 36.97392019522189 -0.5 L 25 -0.5 Z M 79.2786076952219 0.5 L 91.25252789044379 0.5 L 91.25252789044379 3.5 L 98.25252789044379 0 L 91.25252789044379 -3.5 L 91.25252789044379 -0.5 L 79.2786076952219 -0.5 Z"/><text text-anchor="middle" pointer-events="none" font-size="8px" fill="#000000" x="58.12626394522189" y="3" font-family="sans-serif">RELATED</text></g><g class="relationship" transform="translate(43.723862635054346 257.32275003457704) rotate(470.424540207325)"><path class="outline" fill="#A5ABB6" stroke="none" d="M 25 0.5 L 31.31857824278015 0.5 L 31.31857824278015 -0.5 L 25 -0.5 Z M 73.62326574278015 0.5 L 79.9418439855603 0.5 L 79.9418439855603 3.5 L 86.9418439855603 0 L 79.9418439855603 -3.5 L 79.9418439855603 -0.5 L 73.62326574278015 -0.5 Z"/><text text-anchor="middle" pointer-events="none" font-size="8px" fill="#000000" x="52.47092199278015" y="3" transform="rotate(180 52.47092199278015 0)" font-family="sans-serif">RELATED</text></g><g class="relationship" transform="translate(-138.94425692649995 133.09357055983054) rotate(412.3642631162288)"><path class="outline" fill="#A5ABB6" stroke="none" d="M 25 0.5 L 33.346893980472835 0.5 L 33.346893980472835 -0.5 L 25 -0.5 Z M 75.65158148047283 0.5 L 83.99847546094567 0.5 L 83.99847546094567 3.5 L 90.99847546094567 0 L 83.99847546094567 -3.5 L 83.99847546094567 -0.5 L 75.65158148047283 -0.5 Z"/><text text-anchor="middle" pointer-events="none" font-size="8px" fill="#000000" x="54.499237730472835" y="3" font-family="sans-serif">RELATED</text></g><g class="relationship" transform="translate(43.723862635054346 257.32275003457704) rotate(196.14230159088828)"><path class="outline" fill="#A5ABB6" stroke="none" d="M 25 0.5 L 33.560185332381856 0.5 L 33.560185332381856 -0.5 L 25 -0.5 Z M 75.86487283238185 0.5 L 84.42505816476371 0.5 L 84.42505816476371 3.5 L 91.42505816476371 0 L 84.42505816476371 -3.5 L 84.42505816476371 -0.5 L 75.86487283238185 -0.5 Z"/><text text-anchor="middle" pointer-events="none" font-size="8px" fill="#000000" x="54.712529082381856" y="3" transform="rotate(180 54.712529082381856 0)" font-family="sans-serif">RELATED</text></g><g class="relationship" transform="translate(43.723862635054346 257.32275003457704) rotate(410.1638956431208)"><path class="outline" fill="#A5ABB6" stroke="none" d="M 25 0.5 L 33.25281692977424 0.5 L 33.25281692977424 -0.5 L 25 -0.5 Z M 75.55750442977424 0.5 L 83.81032135954848 0.5 L 83.81032135954848 3.5 L 90.81032135954848 0 L 83.81032135954848 -3.5 L 83.81032135954848 -0.5 L 75.55750442977424 -0.5 Z"/><text text-anchor="middle" pointer-events="none" font-size="8px" fill="#000000" x="54.40516067977424" y="3" font-family="sans-serif">RELATED</text></g><g class="relationship" transform="translate(177.71924887685276 103.31099024957302) rotate(460.64382393202624)"><path class="outline" fill="#A5ABB6" stroke="none" d="M 25 0.5 L 33.08059207234064 0.5 L 33.08059207234064 -0.5 L 25 -0.5 Z M 75.38527957234064 0.5 L 83.46587164468129 0.5 L 83.46587164468129 3.5 L 90.46587164468129 0 L 83.46587164468129 -3.5 L 83.46587164468129 -0.5 L 75.38527957234064 -0.5 Z"/><text text-anchor="middle" pointer-events="none" font-size="8px" fill="#000000" x="54.23293582234064" y="3" transform="rotate(180 54.23293582234064 0)" font-family="sans-serif">RELATED</text></g><g class="relationship" transform="translate(265.3943899360405 262.8728841229102) rotate(202.9171344138283)"><path class="outline" fill="#A5ABB6" stroke="none" d="M 25 0.5 L 34.5191449477068 0.5 L 34.5191449477068 -0.5 L 25 -0.5 Z M 76.82383244770679 0.5 L 86.3429773954136 0.5 L 86.3429773954136 3.5 L 93.3429773954136 0 L 86.3429773954136 -3.5 L 86.3429773954136 -0.5 L 76.82383244770679 -0.5 Z"/><text text-anchor="middle" pointer-events="none" font-size="8px" fill="#000000" x="55.6714886977068" y="3" transform="rotate(180 55.6714886977068 0)" font-family="sans-serif">RELATED</text></g><g class="relationship" transform="translate(43.723862635054346 257.32275003457704) rotate(340.21377529040944)"><path class="outline" fill="#A5ABB6" stroke="none" d="M 25 0.5 L 35.216417187161156 0.5 L 35.216417187161156 -0.5 L 25 -0.5 Z M 77.52110468716116 0.5 L 87.73752187432231 0.5 L 87.73752187432231 3.5 L 94.73752187432231 0 L 87.73752187432231 -3.5 L 87.73752187432231 -0.5 L 77.52110468716116 -0.5 Z"/><text text-anchor="middle" pointer-events="none" font-size="8px" fill="#000000" x="56.368760937161156" y="3" font-family="sans-serif">RELATED</text></g></g><g class="layer nodes"><g class="node" transform="translate(43.723862635054346,257.32275003457704)"><circle class="outline" cx="0" cy="0" r="25" fill="#FFD86E" stroke="#EDBA39" stroke-width="2px"/><text text-anchor="middle" pointer-events="none" font-family="sans-serif" dy="1.5625" font-size="25" fill="#604A0E"/><text class="caption" text-anchor="middle" pointer-events="none" y="5" font-size="10px" fill="#604A0E" font-family="sans-serif"> Joe</text></g><g class="node" transform="translate(-138.94425692649995,133.09357055983054)"><circle class="outline" cx="0" cy="0" r="25" fill="#FFD86E" stroke="#EDBA39" stroke-width="2px"/><text text-anchor="middle" pointer-events="none" font-family="sans-serif" dy="1.5625" font-size="25" fill="#604A0E"/><text class="caption" text-anchor="middle" pointer-events="none" y="5" font-size="10px" fill="#604A0E" font-family="sans-serif"> Fred</text></g><g class="node" transform="translate(265.3943899360405,262.8728841229102)"><circle class="outline" cx="0" cy="0" r="25" fill="#FFD86E" stroke="#EDBA39" stroke-width="2px"/><text text-anchor="middle" pointer-events="none" font-family="sans-serif" dy="1.5625" font-size="25" fill="#604A0E"/><text class="caption" text-anchor="middle" pointer-events="none" y="5" font-size="10px" fill="#604A0E" font-family="sans-serif"> Tom</text></g><g class="node" transform="translate(-175.58757354931137,254.31361878584295)"><circle class="outline" cx="0" cy="0" r="25" fill="#FFD86E" stroke="#EDBA39" stroke-width="2px"/><text text-anchor="middle" pointer-events="none" font-family="sans-serif" dy="1.5625" font-size="25" fill="#604A0E"/><text class="caption" text-anchor="middle" pointer-events="none" y="5" font-size="10px" fill="#604A0E" font-family="sans-serif"> Robert</text></g><g class="node" transform="translate(177.71924887685276,103.31099024957302)"><circle class="outline" cx="0" cy="0" r="25" fill="#FFD86E" stroke="#EDBA39" stroke-width="2px"/><text text-anchor="middle" pointer-events="none" font-family="sans-serif" dy="1.5625" font-size="25" fill="#604A0E"/><text class="caption" text-anchor="middle" pointer-events="none" y="5" font-size="10px" fill="#604A0E" font-family="sans-serif"> Mark</text></g><g class="node" transform="translate(295.60159881386545,77.52601055619633)"><circle class="outline" cx="0" cy="0" r="25" fill="#FFD86E" stroke="#EDBA39" stroke-width="2px"/><text text-anchor="middle" pointer-events="none" font-family="sans-serif" dy="1.5625" font-size="25" fill="#604A0E"/><text class="caption" text-anchor="middle" pointer-events="none" y="5" font-size="10px" fill="#604A0E" font-family="sans-serif"> Jason</text></g><g class="node" transform="translate(310.6865911639987,-35.06270676581039)"><circle class="outline" cx="0" cy="0" r="25" fill="#FFD86E" stroke="#EDBA39" stroke-width="2px"/><text text-anchor="middle" pointer-events="none" font-family="sans-serif" dy="1.5625" font-size="25" fill="#604A0E"/><text class="caption" text-anchor="middle" pointer-events="none" y="5" font-size="10px" fill="#604A0E" font-family="sans-serif"> Bill</text></g><g class="node" transform="translate(339.10514455468837,-134.52463233727474)"><circle class="outline" cx="0" cy="0" r="25" fill="#FFD86E" stroke="#EDBA39" stroke-width="2px"/><text text-anchor="middle" pointer-events="none" font-family="sans-serif" dy="1.5625" font-size="25" fill="#604A0E"/><text class="caption" text-anchor="middle" pointer-events="none" y="5" font-size="10px" fill="#604A0E" font-family="sans-serif"> Andre</text></g><g class="node" transform="translate(232.06348483631194,-125.19865573893311)"><circle class="outline" cx="0" cy="0" r="25" fill="#FFD86E" stroke="#EDBA39" stroke-width="2px"/><text text-anchor="middle" pointer-events="none" font-family="sans-serif" dy="1.5625" font-size="25" fill="#604A0E"/><text class="caption" text-anchor="middle" pointer-events="none" y="5" font-size="10px" fill="#604A0E" font-family="sans-serif"> Daniel</text></g><g class="node" transform="translate(119.74707609357414,-169.5462954682833)"><circle class="outline" cx="0" cy="0" r="25" fill="#FFD86E" stroke="#EDBA39" stroke-width="2px"/><text text-anchor="middle" pointer-events="none" font-family="sans-serif" dy="1.5625" font-size="25" fill="#604A0E"/><text class="caption" text-anchor="middle" pointer-events="none" y="5" font-size="10px" fill="#604A0E" font-family="sans-serif"> Thomas</text></g><g class="node" transform="translate(1.019431987088638,-159.21185503099727)"><circle class="outline" cx="0" cy="0" r="25" fill="#FFD86E" stroke="#EDBA39" stroke-width="2px"/><text text-anchor="middle" pointer-events="none" font-family="sans-serif" dy="1.5625" font-size="25" fill="#604A0E"/><text class="caption" text-anchor="middle" pointer-events="none" y="5" font-size="10px" fill="#604A0E" font-family="sans-serif"> Sergejs</text></g><g class="node" transform="translate(-20.203007524712113,-49.3678177789607)"><circle class="outline" cx="0" cy="0" r="25" fill="#FFD86E" stroke="#EDBA39" stroke-width="2px"/><text text-anchor="middle" pointer-events="none" font-family="sans-serif" dy="1.5625" font-size="25" fill="#604A0E"/><text class="caption" text-anchor="middle" pointer-events="none" y="5" font-size="10px" fill="#604A0E" font-family="sans-serif"> Bryon</text></g><g class="node" transform="translate(73.34603263694092,30.88031438757668)"><circle class="outline" cx="0" cy="0" r="25" fill="#FFD86E" stroke="#EDBA39" stroke-width="2px"/><text text-anchor="middle" pointer-events="none" font-family="sans-serif" dy="1.5625" font-size="25" fill="#604A0E"/><text class="caption" text-anchor="middle" pointer-events="none" y="5" font-size="10px" fill="#604A0E" font-family="sans-serif"> Toby</text></g><g class="node" transform="translate(4.6591300021496735,362.2271021807449)"><circle class="outline" cx="0" cy="0" r="25" fill="#FFD86E" stroke="#EDBA39" stroke-width="2px"/><text text-anchor="middle" pointer-events="none" font-family="sans-serif" dy="1.5625" font-size="25" fill="#604A0E"/><text class="caption" text-anchor="middle" pointer-events="none" y="5" font-size="10px" fill="#604A0E" font-family="sans-serif"> Anna</text></g><g class="node" transform="translate(-68.11103869060429,224.95379864364054)"><circle class="outline" cx="0" cy="0" r="25" fill="#FFD86E" stroke="#EDBA39" stroke-width="2px"/><text text-anchor="middle" pointer-events="none" font-family="sans-serif" dy="1.5625" font-size="25" fill="#604A0E"/><text class="caption" text-anchor="middle" pointer-events="none" y="5" font-size="10px" fill="#604A0E" font-family="sans-serif"> Wendy</text></g><g class="node" transform="translate(117.91122471586898,346.2511810389077)"><circle class="outline" cx="0" cy="0" r="25" fill="#FFD86E" stroke="#EDBA39" stroke-width="2px"/><text text-anchor="middle" pointer-events="none" font-family="sans-serif" dy="1.5625" font-size="25" fill="#604A0E"/><text class="caption" text-anchor="middle" pointer-events="none" y="5" font-size="10px" fill="#604A0E" font-family="sans-serif"> Dina</text></g><g class="node" transform="translate(156.39234255039452,216.79019795392955)"><circle class="outline" cx="0" cy="0" r="25" fill="#FFD86E" stroke="#EDBA39" stroke-width="2px"/><text text-anchor="middle" pointer-events="none" font-family="sans-serif" dy="1.5625" font-size="25" fill="#604A0E"/><text class="caption" text-anchor="middle" pointer-events="none" y="5" font-size="10px" fill="#604A0E" font-family="sans-serif"> Cate</text></g></g></svg>